<svg width="442" height="431" viewBox="0 0 442 431" fill="none" xmlns="http://www.w3.org/2000/svg">
<path d="M221 136.553C265.673 136.553 301.882 171.899 301.887 215.5C301.887 259.101 265.673 294.442 221 294.447C176.327 294.447 140.118 259.101 140.113 215.5C140.113 171.899 176.327 136.553 221 136.553ZM221 162.869C191.216 162.869 167.075 186.431 167.075 215.5C167.075 244.569 191.216 268.131 221 268.131C250.784 268.131 274.925 244.569 274.925 215.5C274.925 186.431 250.784 162.869 221 162.869ZM376.698 63.5365C417.988 103.842 441.188 158.503 441.188 215.5C441.188 272.497 417.988 327.158 376.698 367.464C335.402 407.764 279.397 430.406 221 430.406C162.603 430.406 106.598 407.764 65.302 367.464C24.0116 327.158 0.8125 272.497 0.8125 215.5C0.8125 158.503 24.0116 103.842 65.302 63.5365C106.598 23.2364 162.603 0.59375 221 0.59375C279.397 0.59375 335.402 23.2364 376.698 63.5365ZM125.737 215.5H23.2812C23.2812 266.68 44.1143 315.767 81.1915 351.955C118.269 388.143 168.563 408.477 221 408.477C273.437 408.477 323.731 388.143 360.808 351.955C397.886 315.767 418.719 266.68 418.719 215.5H316.263C316.263 164.15 273.612 122.522 221 122.522C168.388 122.522 125.737 164.15 125.737 215.5Z" fill="#F3F4F6"/>
</svg>
