<svg width="352" height="117" viewBox="0 0 352 117" fill="none" xmlns="http://www.w3.org/2000/svg">
<ellipse cx="176" cy="67.1383" rx="176" ry="49.4959" fill="#ADD46F"/>
<ellipse cx="175.5" cy="59.692" rx="152.5" ry="37.6694" fill="#7DC67E"/>
<path d="M235.697 97.1828C235.697 96.6335 237.52 96.7886 237.954 96.6935C238.623 96.547 239.296 96.5568 239.976 96.4689C240.702 96.3751 241.389 96.2193 242.127 96.2193C243.442 96.2193 244.748 95.9076 246.073 95.8824C246.714 95.8702 247.366 95.6685 247.996 95.5704C248.345 95.5161 248.699 95.5162 249.05 95.4581C249.36 95.4069 249.637 95.2237 249.947 95.2086C251.152 95.15 252.338 94.8272 253.509 94.6221C254.179 94.5047 254.876 94.3367 255.56 94.3101C256.124 94.2881 256.57 93.9903 257.155 93.9732C258.245 93.9414 259.404 93.5356 260.46 93.3243C260.899 93.2363 261.301 93.0783 261.742 92.9874C262.203 92.8923 262.693 92.7057 263.157 92.604C263.222 92.0533 263.778 90.9697 263.778 90.9697C264.18 90.3314 264.359 88.7916 264.359 88.7916C264.359 88.7916 264.359 87.7033 263.619 86.6664C263.619 86.6664 263.083 85.5132 262.68 85.8524C261.994 86.1356 261.316 86.7046 260.999 87.26C260.563 88.0257 259.48 88.8679 258.746 89.4554C257.88 90.1487 255.683 89.6747 255.245 88.8133C254.68 87.7033 254.278 86.6721 253.988 85.8021C253.368 83.9396 253.266 83.0597 253.509 81.133C253.645 80.0476 253.918 78.2349 254.18 77.1909C254.18 77.1909 254.68 76.3148 255.245 75.0008C255.56 73.6867 252.218 75.8637 251.18 76.3149C249.065 77.2343 247.447 78.5164 245.666 79.8773C244.5 80.7684 244.646 80.5744 243.68 81.5711C242.18 83.3231 241.569 85.531 241.306 86.6664C241.083 88.4556 241.128 89.7494 241.453 91.1933C241.55 91.4622 241.621 91.7399 241.667 92.027C241.586 91.741 241.515 91.4645 241.453 91.1933C241.134 90.3007 240.546 89.5063 239.766 88.7916C238.888 87.9864 237.703 87.3121 236.368 87.0245C235.644 86.8686 232.18 85.0752 233.18 86.3913C234.401 87.5296 234.816 89.3757 235.049 90.8555C235.382 92.9729 235.365 95.0742 235.697 97.1828Z" fill="#ADD46F"/>
<path d="M241.453 91.1933C241.128 89.7494 241.083 88.4556 241.306 86.6664C241.569 85.531 242.18 83.3231 243.68 81.5711C244.646 80.5744 244.5 80.7684 245.666 79.8773C247.447 78.5164 249.065 77.2343 251.18 76.3149C252.218 75.8637 255.56 73.6867 255.245 75.0008C254.68 76.3148 254.18 77.1909 254.18 77.1909C253.918 78.2349 253.645 80.0476 253.509 81.133C253.266 83.0597 253.368 83.9396 253.988 85.8021C254.278 86.6721 254.68 87.7033 255.245 88.8133C255.683 89.6747 257.88 90.1487 258.746 89.4554C259.48 88.8679 260.563 88.0257 260.999 87.26C261.316 86.7046 261.994 86.1356 262.68 85.8524C263.083 85.5132 263.619 86.6664 263.619 86.6664C264.359 87.7033 264.359 88.7916 264.359 88.7916C264.359 88.7916 264.18 90.3314 263.778 90.9697C263.778 90.9697 263.222 92.0533 263.157 92.604C262.693 92.7057 262.203 92.8923 261.742 92.9874C261.301 93.0783 260.899 93.2363 260.46 93.3243C259.404 93.5356 258.245 93.9414 257.155 93.9732C256.57 93.9903 256.124 94.2881 255.56 94.3101C254.876 94.3367 254.179 94.5047 253.509 94.6221C252.338 94.8272 251.152 95.15 249.947 95.2086C249.637 95.2237 249.36 95.4069 249.05 95.4581C248.699 95.5162 248.345 95.5161 247.996 95.5704C247.366 95.6685 246.714 95.8702 246.073 95.8824C244.748 95.9076 243.442 96.2193 242.127 96.2193C241.389 96.2193 240.702 96.3751 239.976 96.4689C239.296 96.5568 238.623 96.547 237.954 96.6935C237.52 96.7886 235.697 96.6335 235.697 97.1828C235.365 95.0742 235.382 92.9729 235.049 90.8555C234.816 89.3757 234.401 87.5296 233.18 86.3913C232.18 85.0752 235.644 86.8686 236.368 87.0245C237.703 87.3121 238.888 87.9864 239.766 88.7916C240.546 89.5063 241.134 90.3007 241.453 91.1933ZM241.453 91.1933C241.55 91.4622 241.621 91.7399 241.667 92.027C241.586 91.741 241.515 91.4645 241.453 91.1933Z" stroke="#ADD46F" stroke-linecap="round"/>
<path d="M139.258 25.5997C139.159 25.0594 137.394 25.5396 136.949 25.5241C136.265 25.5002 135.604 25.6309 134.919 25.6667C134.188 25.7048 133.485 25.675 132.759 25.8077C131.465 26.044 130.125 25.9721 128.817 26.1855C128.184 26.2887 127.506 26.2075 126.869 26.2242C126.516 26.2335 126.168 26.2972 125.812 26.3032C125.497 26.3085 125.192 26.1781 124.884 26.219C123.689 26.3778 122.464 26.2735 121.276 26.2821C120.595 26.2871 119.879 26.2472 119.202 26.3439C118.643 26.4237 118.151 26.2108 117.572 26.2992C116.494 26.4638 115.281 26.2731 114.204 26.2549C113.756 26.2473 113.333 26.164 112.883 26.1539C112.412 26.1432 111.897 26.0476 111.422 26.0311C110.5 25.3227 110.5 25.3227 110.5 25.3227C109.5 24.3227 108.5 22.8848 108.5 22.8848C108.5 22.8848 107 20.8801 107 18.3848C107 18.3848 107.043 13.1235 107.5 13.3848C108.226 13.5401 111.589 17.5871 112 18.0766C112.567 18.7513 113.5 20 115.5 20.5C115.5 20.5 116.5 20.3862 117.482 19.259C118.301 18.3198 118.371 17.2307 118.5 16.3227C118.775 14.3791 118.5 14.6327 118.5 12.8227C118.17 11.7796 117.927 10.2354 117.482 9.25543C117.482 9.25543 116.833 6.01385 116.041 4.82275C115.495 3.58669 119.174 5.12753 120.276 5.3848C120.769 5.5 121.5 5.5 123.5 6.5C123.5 6.5 126.362 8.46846 129 11.5C131.638 14.5315 131.387 15.193 131.85 16.2628C132.39 17.9828 132.579 19.2636 132.518 20.7425C132.472 21.0242 132.451 21.3103 132.458 21.6009C132.487 21.305 132.507 21.0202 132.518 20.7425C132.672 19.807 133.108 18.9197 133.746 18.0766C134.466 17.1266 134.728 16.7725 136.5 15.5C138 14.5 140.541 13.0572 139.794 14.5315C138.797 15.8708 138.721 17.7614 138.758 19.259C138.811 21.4017 139.205 23.4658 139.258 25.5997Z" fill="#7DC67E"/>
<path d="M132.518 20.7425C132.579 19.2636 132.39 17.9828 131.85 16.2628C131.387 15.193 131.638 14.5315 129 11.5C126.362 8.46846 123.5 6.5 123.5 6.5C121.5 5.5 120.769 5.5 120.276 5.3848C119.174 5.12753 115.495 3.58669 116.041 4.82275C116.833 6.01385 117.482 9.25543 117.482 9.25543C117.927 10.2354 118.17 11.7796 118.5 12.8227C118.5 14.6327 118.775 14.3791 118.5 16.3227C118.371 17.2307 118.301 18.3198 117.482 19.259C116.5 20.3862 115.5 20.5 115.5 20.5C113.5 20 112.567 18.7513 112 18.0766C111.589 17.5871 108.226 13.5401 107.5 13.3848C107.043 13.1235 107 18.3848 107 18.3848C107 20.8801 108.5 22.8848 108.5 22.8848C108.5 22.8848 109.5 24.3227 110.5 25.3227C110.5 25.3227 110.5 25.3227 111.422 26.0311C111.897 26.0476 112.412 26.1432 112.883 26.1539C113.333 26.164 113.756 26.2473 114.204 26.2549C115.281 26.2731 116.494 26.4638 117.572 26.2992C118.151 26.2108 118.643 26.4237 119.202 26.3439C119.879 26.2472 120.595 26.2871 121.276 26.2821C122.464 26.2735 123.689 26.3778 124.884 26.219C125.192 26.1781 125.497 26.3085 125.812 26.3032C126.168 26.2972 126.516 26.2335 126.869 26.2242C127.506 26.2075 128.184 26.2887 128.817 26.1855C130.125 25.9721 131.465 26.044 132.759 25.8077C133.485 25.675 134.188 25.7048 134.919 25.6667C135.604 25.6309 136.265 25.5002 136.949 25.5241C137.394 25.5396 139.159 25.0594 139.258 25.5997C139.205 23.4658 138.811 21.4017 138.758 19.259C138.721 17.7614 138.797 15.8708 139.794 14.5315C140.541 13.0572 138 14.5 136.5 15.5C134.728 16.7725 134.466 17.1266 133.746 18.0766C133.108 18.9197 132.672 19.807 132.518 20.7425ZM132.518 20.7425C132.472 21.0242 132.451 21.3103 132.458 21.6009C132.487 21.305 132.507 21.0202 132.518 20.7425Z" stroke="#7DC67E" stroke-linecap="round"/>
</svg>
